<?xml version="1.0" encoding="UTF-8"?>
<svg id="Warstwa_2" data-name="Warstwa 2" xmlns="http://www.w3.org/2000/svg" viewBox="0 0 159.47 50.6">
  <defs>
    <style>
      .cls-1 {
        fill: #fc0;
      }

      .cls-2 {
        fill: #000675;
      }
    </style>
  </defs>
  <g id="Warstwa_1-2" data-name="Warstwa 1">
    <g>
      <g>
        <path class="cls-2" d="M9.67,29.31H0v21.29h9.67c4.91,0,8.74-2.09,10.55-5.58.34-.62.59-1.29.78-2,.26-.95.4-1.97.4-3.06,0-6.45-4.77-10.65-11.74-10.65ZM16.02,42.46c-.25.75-.65,1.4-1.15,1.96-1.21,1.38-3.09,2.14-5.43,2.14h-4.5v-13.2h4.5c4.23,0,7,2.53,7,6.61,0,.92-.14,1.76-.41,2.5Z"/>
        <path class="cls-2" d="M38.69,50.6l-4.11-5.93h-4.53v5.93h-4.93v-21.29h9.22c5.69,0,9.25,2.95,9.25,7.72,0,3.19-1.61,5.54-4.38,6.72l4.77,6.84h-5.29ZM34.06,33.33h-4.01v7.42h4.01c3.01,0,4.53-1.4,4.53-3.71s-1.52-3.71-4.53-3.71Z"/>
        <polygon class="cls-2" points="63.96 46.65 63.96 50.6 47.47 50.6 47.47 29.31 63.56 29.31 63.56 33.27 52.37 33.27 52.37 37.89 62.25 37.89 62.25 41.72 52.37 41.72 52.37 46.65 63.96 46.65"/>
        <path class="cls-2" d="M83.18,37.7c-1.41.44-2.82.86-4.22,1.25l.74,1.8c1.43-.39,2.86-.82,4.29-1.26l-.8-1.79Z"/>
        <path class="cls-2" d="M88.95,50.6h-5.17l-1.88-4.56h-9.89l-1.88,4.56h-5.05l3.23-7.24.94-2.13,5.31-11.92h4.87l3.75,8.38c-1.41.44-2.82.86-4.22,1.25l-1.99-4.8-2.46,5.93-.91,2.19v.03s6.74,0,6.74,0l-.65-1.56c1.43-.39,2.86-.82,4.29-1.26l4.96,11.11Z"/>
        <polygon class="cls-2" points="115.17 50.6 110.54 50.6 110.51 37.84 104.24 48.36 102.02 48.36 95.79 38.1 95.79 50.6 91.17 50.6 91.17 29.31 95.25 29.31 97.1 32.39 98.14 34.12 103.21 42.55 111.06 29.31 115.1 29.31 115.17 50.6"/>
        <path class="cls-2" d="M136.69,46.65v3.95h-16.48v-21.29h16.09v3.95h-11.19v4.62h9.88v3.83h-9.88v4.93h11.59Z"/>
        <path class="cls-2" d="M154.17,50.6l-4.11-5.93h-4.53v5.93h-4.93v-21.29h9.22c5.69,0,9.25,2.95,9.25,7.72,0,3.19-1.61,5.54-4.38,6.72l4.78,6.84h-5.29ZM149.55,33.33h-4.01v7.42h4.01c3.01,0,4.53-1.4,4.53-3.71s-1.52-3.71-4.53-3.71Z"/>
      </g>
      <polygon class="cls-1" points="144.38 7.54 142.73 3.77 142.72 3.77 142.72 3.77 144.38 0 140.61 1.65 140.61 1.65 136.84 0 138.49 3.77 138.49 3.77 136.84 7.54 140.61 5.88 140.61 5.88 140.61 5.88 144.38 7.54"/>
      <g>
        <path class="cls-1" d="M16.02,42.46c-.25.75-.65,1.4-1.15,1.96-3.43-.43-6.74-.94-9.93-1.49v-2.15c3.55.64,7.25,1.21,11.08,1.68Z"/>
        <path class="cls-1" d="M39.37,44c2.68.01,5.38-.04,8.11-.19v1.97c-2.25.12-4.5.18-6.72.2-.57.01-1.15.01-1.73.01-1.2,0-2.38-.01-3.57-.04-1.82-.03-3.63-.1-5.41-.18-1.66-.08-3.31-.18-4.93-.31-1.65-.13-3.28-.26-4.89-.43.34-.62.59-1.29.78-2,1.35.15,2.72.26,4.11.38,4.62.37,9.38.58,14.25.59Z"/>
        <path class="cls-1" d="M52.37,43.51c5.57-.42,11.21-1.16,16.88-2.28l-.94,2.13c-5.36,1.01-10.68,1.68-15.94,2.11v-1.96Z"/>
        <path class="cls-1" d="M83.18,37.7c2.67-.84,5.33-1.77,7.99-2.82v2.12c-2.39.91-4.78,1.74-7.19,2.49-1.43.44-2.86.87-4.29,1.26-2.03.56-4.06,1.07-6.1,1.52l.91-2.19c1.48-.35,2.96-.73,4.45-1.13,1.41-.39,2.82-.8,4.22-1.25Z"/>
        <path class="cls-1" d="M134.78,8.61l-6.22,5.9c-4.27,3.77-8.81,7.24-13.51,10.34-5.53,3.63-11.18,6.7-16.92,9.27l-1.04-1.73c5.47-2.48,10.87-5.42,16.15-8.9,4.62-3.04,17.35-11.19,21.53-14.88Z"/>
      </g>
    </g>
  </g>
</svg>